<?xml version="1.0" encoding="utf-8"?>
<!-- Generator: Adobe Illustrator 24.0.1, SVG Export Plug-In . SVG Version: 6.00 Build 0)  -->
<svg version="1.1" id="Layer_1" xmlns="http://www.w3.org/2000/svg" xmlns:xlink="http://www.w3.org/1999/xlink" x="0px" y="0px"
	 viewBox="0 0 284 92.9" style="enable-background:new 0 0 284 92.9;" xml:space="preserve">
<style type="text/css">
	.st0{fill:#FFFFFF;}
</style>
<g>
	<g>
		<path class="st0" d="M277.4,27.7c-4.2-4.2-10.3-6.6-17.9-6.6c-2.3,0-9.9-0.2-11.7,0v5.2c1.2-0.2,8.1,0,9.5,0
			c10.1,0,15,6.9,15,18.1c0,5.5-1.1,10.3-3.6,13.9c-2.5,3.6-6.2,5.6-11.2,5.6h-13.1v3.9h15.1c7.6,0,13.7-2.7,17.9-6.9
			c4.2-4.2,6.6-10.1,6.6-16.5C284,38,281.6,32,277.4,27.7z"/>
		<polygon class="st0" points="220.9,0.2 220.9,67.8 232.6,67.8 232.4,0.3 		"/>
		<path class="st0" d="M195.2,63.9H193h-3.4h-17.6V22.2h-11.7v41.7h-13.6l-10,0V47.3c0-6.4-2.3-12.6-6.6-17.2
			c-4.4-4.5-10.5-7.5-18.1-7.5H73.5l12.4-12.5c5-4.8,10.3-6.9,16.4-1.9c0.2,0,0.5,0.3,0.9,0.8l0.9,0.9l1.4-1.4
			c-3-3.7-7-8.6-11.9-8.6c-3.3,0.2-7.5,2.8-12.3,7.3L60.7,27.8h49.2c10.1,0,15.1,8.4,15.1,19.5v16.5H53.1h-2.5V37.8V30v-8.6H32.9
			C12.8,21.4,0,30.5,0,44.7c0,6.9,3.1,12.5,8.6,16.5c5.5,4.1,13.1,6.6,22.3,6.6H39c0,4.2-0.3,8.6-1.7,12.3c-1.4,3.9-3.9,7.5-8.4,10
			c-0.5,0.3-0.6,0.6-0.3,0.8c0.2,0.3,0.8,0.3,1.6,0.2c2.5-0.6,7.5-1.7,12-4.8c4.4-3,8.1-8,8.1-16.2v-2.2h90.2h6.2h42.9h3.4h13.9
			V22.2h-11.7V63.9z M38.9,64.3H28.7c-10-1.1-17.5-7.8-17.5-19.7c0-12.5,8.3-18.7,20-18.7c2.7,0,5.2,0.3,7.6,1.1V64.3z"/>
		
			<rect x="149" y="79.9" transform="matrix(0.7071 -0.7071 0.7071 0.7071 -15.0768 134.1434)" class="st0" width="10.8" height="10.8"/>
		
			<rect x="178" y="3.1" transform="matrix(0.7071 -0.7071 0.7071 0.7071 47.5228 132.6144)" class="st0" width="11.7" height="11.7"/>
		
			<rect x="133.7" y="79.9" transform="matrix(0.7071 -0.7071 0.7071 0.7071 -19.5603 123.3188)" class="st0" width="10.8" height="10.8"/>
	</g>
</g>
</svg>
