<?xml version="1.0" encoding="utf-8"?>
<!-- Generator: Adobe Illustrator 24.0.1, SVG Export Plug-In . SVG Version: 6.00 Build 0)  -->
<svg version="1.1" id="Layer_1" xmlns="http://www.w3.org/2000/svg" xmlns:xlink="http://www.w3.org/1999/xlink" x="0px" y="0px"
	 viewBox="0 0 48 48" style="enable-background:new 0 0 48 48;" xml:space="preserve">
<style type="text/css">
	.st0{fill:#0172ED;}
	.st1{fill:#FFFFFF;}
</style>
<circle class="st0" cx="24" cy="24" r="24"/>
<path class="st1" d="M32.5,26.6c-1.3-1.3-2.9-2.3-4.6-2.9c1.8-1.3,3-3.3,3-5.7c0-3.8-3.1-6.9-6.9-6.9s-6.9,3.1-6.9,6.9
	c0,2.4,1.2,4.5,3,5.7c-1.7,0.6-3.3,1.6-4.6,2.9C13.2,28.8,12,31.8,12,35h1.9c0-5.6,4.5-10.1,10.1-10.1S34.1,29.5,34.1,35H36
	C36,31.8,34.8,28.8,32.5,26.6z M18.9,18c0-2.8,2.3-5.1,5.1-5.1s5.1,2.3,5.1,5.1S26.8,23,24,23S18.9,20.8,18.9,18z"/>
</svg>
